<?xml version="1.0" standalone="no"?>
<!DOCTYPE svg PUBLIC "-//W3C//DTD SVG 20010904//EN"
 "http://www.w3.org/TR/2001/REC-SVG-20010904/DTD/svg10.dtd">
<svg version="1.0" xmlns="http://www.w3.org/2000/svg"
 width="700.000000pt" height="700.000000pt" viewBox="0 0 700.000000 700.000000"
 preserveAspectRatio="xMidYMid meet">
<metadata>
Created by potrace 1.14, written by Peter Selinger 2001-2017
</metadata>
<g transform="translate(0.000000,700.000000) scale(0.100000,-0.100000)"
fill="#000000" stroke="none">
<path d="M4482 5859 c-34 -4 -79 -11 -100 -14 -20 -4 -50 -9 -67 -11 -85 -14
-314 -83 -367 -110 -15 -8 -30 -14 -33 -14 -12 0 -165 -77 -235 -119 -249
-149 -506 -397 -659 -638 -31 -48 -156 -291 -164 -318 -3 -11 -19 -57 -36
-102 -16 -46 -27 -83 -25 -83 3 0 0 -8 -5 -18 -9 -17 -48 -191 -56 -252 -44
-314 -9 -664 95 -947 l29 -81 -28 -43 c-56 -89 -167 -183 -272 -232 -121 -56
-294 -66 -439 -27 -149 40 -304 167 -378 307 l-27 53 -687 0 -688 0 -1 -32
c-19 -561 188 -1090 576 -1471 180 -176 321 -277 536 -380 289 -140 565 -199
894 -192 88 2 171 5 185 8 14 3 43 8 65 11 405 54 841 280 1125 583 96 103
115 126 182 221 34 48 63 89 65 91 2 3 56 -12 121 -33 64 -20 128 -39 142 -41
14 -3 59 -12 102 -20 121 -23 193 -29 343 -29 156 -1 319 12 375 29 8 3 33 7
55 11 22 3 90 22 150 41 l110 35 642 2 c354 0 643 4 643 7 0 6 -149 148 -304
290 -32 30 -94 88 -138 129 l-79 75 72 85 c152 182 283 413 354 625 20 61 38
117 40 125 53 231 66 330 67 520 1 137 -7 218 -37 385 -12 69 -50 200 -85 295
-99 270 -256 511 -469 720 -209 206 -423 343 -697 445 -96 36 -249 79 -314 89
-90 13 -117 18 -140 22 -43 9 -372 11 -438 3z m403 -1391 c193 -64 347 -235
395 -437 13 -56 17 -194 7 -245 -45 -220 -199 -394 -413 -467 -56 -20 -89 -24
-179 -24 -143 1 -209 16 -305 72 -61 36 -66 40 -135 109 -155 155 -212 399
-141 609 110 323 449 491 771 383z"/>
</g>
</svg>
